<?xml version="1.0" encoding="UTF-8" standalone="no"?>
<!-- Created with Inkscape (http://www.inkscape.org/) -->

<svg
   xmlns:dc="http://purl.org/dc/elements/1.1/"
   xmlns:cc="http://creativecommons.org/ns#"
   xmlns:rdf="http://www.w3.org/1999/02/22-rdf-syntax-ns#"
   xmlns:svg="http://www.w3.org/2000/svg"
   xmlns="http://www.w3.org/2000/svg"
   xmlns:sodipodi="http://sodipodi.sourceforge.net/DTD/sodipodi-0.dtd"
   xmlns:inkscape="http://www.inkscape.org/namespaces/inkscape"
   width="210mm"
   height="297mm"
   viewBox="0 0 210 297"
   version="1.1"
   id="svg1765"
   inkscape:version="0.92.3 (2405546, 2018-03-11)"
   sodipodi:docname="gravure.svg">
  <defs
     id="defs1759" />
  <sodipodi:namedview
     id="base"
     pagecolor="#ffffff"
     bordercolor="#666666"
     borderopacity="1.0"
     inkscape:pageopacity="0.0"
     inkscape:pageshadow="2"
     inkscape:zoom="0.49497475"
     inkscape:cx="86.550819"
     inkscape:cy="814.23148"
     inkscape:document-units="mm"
     inkscape:current-layer="layer1"
     showgrid="false"
     showguides="true"
     inkscape:snap-global="false"
     inkscape:window-width="1366"
     inkscape:window-height="712"
     inkscape:window-x="0"
     inkscape:window-y="0"
     inkscape:window-maximized="1" />
  <metadata
     id="metadata1762">
    <rdf:RDF>
      <cc:Work
         rdf:about="">
        <dc:format>image/svg+xml</dc:format>
        <dc:type
           rdf:resource="http://purl.org/dc/dcmitype/StillImage" />
        <dc:title></dc:title>
      </cc:Work>
    </rdf:RDF>
  </metadata>
  <g
     inkscape:label="Calque 1"
     inkscape:groupmode="layer"
     id="layer1">
    <path
       id="path3622-7-9"
       style="fill:none;stroke:#000000;stroke-width:1;stroke-linecap:butt;stroke-linejoin:miter;stroke-opacity:1;stroke-miterlimit:4;stroke-dasharray:none"
       d="m 35.925444,132.40093 c 0,0 3.58861,7.70622 6.06623,0.67597 0,0 3.60272,7.19953 5.31326,0.40146 0,0 3.39873,5.41905 7.10784,-0.3092 m 0.0908,-4.40099 a 0.98567188,0.98567188 0 0 1 -0.98568,0.98567 0.98567188,0.98567188 0 0 1 -0.98567,-0.98567 0.98567188,0.98567188 0 0 1 0.98567,-0.98567 0.98567188,0.98567188 0 0 1 0.98568,0.98567 z m -3.59078,0 a 0.98567188,0.98567188 0 0 1 -0.98567,0.98567 0.98567188,0.98567188 0 0 1 -0.98567,-0.98567 0.98567188,0.98567188 0 0 1 0.98567,-0.98567 0.98567188,0.98567188 0 0 1 0.98567,0.98567 z m -4.15774,0.18899 a 0.98567188,0.98567188 0 0 1 -0.98568,0.98567 0.98567188,0.98567188 0 0 1 -0.98567,-0.98567 0.98567188,0.98567188 0 0 1 0.98567,-0.98567 0.98567188,0.98567188 0 0 1 0.98568,0.98567 z m -4.53571,0 a 0.98567188,0.98567188 0 0 1 -0.98567,0.98567 0.98567188,0.98567188 0 0 1 -0.98567,-0.98567 0.98567188,0.98567188 0 0 1 0.98567,-0.98567 0.98567188,0.98567188 0 0 1 0.98567,0.98567 z m -3.96875,-0.18899 a 0.98567188,0.98567188 0 0 1 -0.98567,0.98567 0.98567188,0.98567188 0 0 1 -0.98567,-0.98567 0.98567188,0.98567188 0 0 1 0.98567,-0.98567 0.98567188,0.98567188 0 0 1 0.98567,0.98567 z m -2.15741,3.02381 18.14286,-0.37798 m -18.15584,-8.31552 c 0,0 3.58861,7.70622 6.06623,0.67597 0,0 3.60272,7.19953 5.31326,0.40146 0,0 3.39873,5.41905 7.10784,-0.3092 m 26.96514,20.44369 c 0,0 -5.07813,-7.88445 -8.8199,-8.55263 m 6.01356,9.88898 c 0,0 -2.00452,-6.01356 -7.08264,-7.21628 m 2.80633,7.08264 c 0,0 -0.80181,-5.47903 -6.94901,-5.07812 m -59.4829398,4.88955 c 0,0 5.0781298,-7.88445 8.8198998,-8.55263 m -6.01356,9.88898 c 0,0 2.00452,-6.01356 7.08264,-7.21628 m -2.80633,7.08264 c 0,0 0.80181,-5.47903 6.94901,-5.07812"
       inkscape:connector-curvature="0" />
    <circle
       style="opacity:1;vector-effect:none;fill:none;fill-opacity:1;stroke:#000000;stroke-width:1;stroke-linecap:square;stroke-linejoin:round;stroke-miterlimit:4;stroke-dasharray:none;stroke-dashoffset:0;stroke-opacity:1;paint-order:normal"
       id="path3308-0"
       cx="22.284227"
       cy="20.812414"
       r="8.1102581" />
    <path
       style="opacity:1;vector-effect:none;fill:#000000;fill-opacity:1;stroke:#000000;stroke-width:1;stroke-linecap:square;stroke-linejoin:round;stroke-miterlimit:4;stroke-dasharray:none;stroke-dashoffset:0;stroke-opacity:1;paint-order:normal"
       d="m 24.92194,19.021935 a 1.3229166,1.795387 0 0 1 0.19689,0.939994 1.3229166,1.795387 0 0 1 -1.32292,1.795239 1.3229166,1.795387 0 0 1 -1.32291,-1.795239 1.3229166,1.795387 0 0 1 0.19534,-0.93431 2.5344555,2.2810099 0 0 0 -1.39785,2.038119 2.5344555,2.2810099 0 0 0 2.53421,2.280997 2.5344555,2.2810099 0 0 0 2.53473,-2.280997 2.5344555,2.2810099 0 0 0 -1.41749,-2.043803 z"
       id="path3310-8"
       inkscape:connector-curvature="0" />
    <path
       id="path3201-5-9-4-5-0-3-8"
       style="opacity:1;vector-effect:none;fill:none;fill-opacity:1;stroke:#000000;stroke-width:1;stroke-linecap:square;stroke-linejoin:round;stroke-miterlimit:4;stroke-dasharray:none;stroke-dashoffset:0;stroke-opacity:1;paint-order:normal"
       d="m 200.97201,96.913313 a 2.2465315,2.2465315 0 0 1 -2.24653,2.246531 2.2465315,2.2465315 0 0 1 -2.24653,-2.246531 2.2465315,2.2465315 0 0 1 2.24653,-2.246532 2.2465315,2.2465315 0 0 1 2.24653,2.246532 z m -4.83874,-6.272461 a 2.2465315,2.2465315 0 0 1 -2.24653,2.246532 2.2465315,2.2465315 0 0 1 -2.24654,-2.246532 2.2465315,2.2465315 0 0 1 2.24654,-2.246531 2.2465315,2.2465315 0 0 1 2.24653,2.246531 z m -5.91404,-5.376396 a 2.2465315,2.2465315 0 0 1 -2.24653,2.246531 2.2465315,2.2465315 0 0 1 -2.24653,-2.246531 2.2465315,2.2465315 0 0 1 2.24653,-2.246532 2.2465315,2.2465315 0 0 1 2.24653,2.246532 z m -45.97455,27.598814 c 0,0 -2.68819,8.06459 3.94269,4.65954 0,0 -2.32976,7.70617 3.58429,3.94269 0,0 -1.25451,6.27246 5.37639,4.65954 m -1.79216,-23.83535 c 0,0 -4.3011,8.06459 4.48034,5.91403 0,0 -3.58425,7.52696 3.58426,4.65955 0,0 -1.61292,7.52695 4.65954,4.30112 0,0 -1.07527,7.34773 4.83875,4.65954 m -8.88504,-29.686771 c 0,0 -1.37882,10.570961 6.43451,6.664299 0,0 -2.75764,7.813312 4.36623,4.825872 0,0 -2.98743,8.50272 4.36628,3.90666 0,0 -4.13644,7.81332 3.44705,4.13646 0,0 -3.21724,5.28548 2.98746,4.82588 M 173.98885,81.588192 c 0,0 -1.52067,11.658492 7.09648,7.349922 0,0 -3.04134,8.617148 4.81545,5.322355 0,0 -3.29479,9.377481 4.81548,4.308576 0,0 -4.56201,8.617145 3.80168,4.562015 0,0 -3.54823,5.82925 3.29482,5.32236 m -55.49599,11.86277 a 1.3478843,1.3478843 0 0 1 -1.34788,1.34788 1.3478843,1.3478843 0 0 1 -1.34789,-1.34788 1.3478843,1.3478843 0 0 1 1.34789,-1.34788 1.3478843,1.3478843 0 0 1 1.34788,1.34788 z m 3.68424,3.74412 a 1.3478843,1.3478843 0 0 1 -1.34789,1.34788 1.3478843,1.3478843 0 0 1 -1.34788,-1.34788 1.3478843,1.3478843 0 0 1 1.34788,-1.34789 1.3478843,1.3478843 0 0 1 1.34789,1.34789 z m 10.63368,-9.79661 a 1.6129175,1.6129175 0 0 1 -1.61291,1.61292 1.6129175,1.6129175 0 0 1 -1.61292,-1.61292 1.6129175,1.6129175 0 0 1 1.61292,-1.61292 1.6129175,1.6129175 0 0 1 1.61291,1.61292 z m 9.43817,9.63911 a 1.6129175,1.6129175 0 0 1 -1.61291,1.61292 1.6129175,1.6129175 0 0 1 -1.61292,-1.61292 1.6129175,1.6129175 0 0 1 1.61292,-1.61291 1.6129175,1.6129175 0 0 1 1.61291,1.61291 z m -4.65951,-4.40864 a 1.6129175,1.6129175 0 0 1 -1.61292,1.61292 1.6129175,1.6129175 0 0 1 -1.61292,-1.61292 1.6129175,1.6129175 0 0 1 1.61292,-1.61292 1.6129175,1.6129175 0 0 1 1.61292,1.61292 z m -9.42661,-9.78504 a 1.6129175,1.6129175 0 0 1 -1.61291,1.61292 1.6129175,1.6129175 0 0 1 -1.61292,-1.61292 1.6129175,1.6129175 0 0 1 1.61292,-1.61291 1.6129175,1.6129175 0 0 1 1.61291,1.61291 z m 32.45027,-29.307711 a 2.2465315,2.2465315 0 0 1 -2.24653,2.246531 2.2465315,2.2465315 0 0 1 -2.24653,-2.246531 2.2465315,2.2465315 0 0 1 2.24653,-2.246532 2.2465315,2.2465315 0 0 1 2.24653,2.246532 z m -5.92677,15.436615 a 1.6129175,1.6129175 0 0 1 -1.61292,1.612917 1.6129175,1.6129175 0 0 1 -1.61291,-1.612917 1.6129175,1.6129175 0 0 1 1.61291,-1.612918 1.6129175,1.6129175 0 0 1 1.61292,1.612918 z m 9.06821,8.888986 a 1.6129175,1.6129175 0 0 1 -1.61292,1.61292 1.6129175,1.6129175 0 0 1 -1.61292,-1.61292 1.6129175,1.6129175 0 0 1 1.61292,-1.61292 1.6129175,1.6129175 0 0 1 1.61292,1.61292 z m 4.12189,4.30108 a 1.6129175,1.6129175 0 0 1 -1.61292,1.61292 1.6129175,1.6129175 0 0 1 -1.61292,-1.61292 1.6129175,1.6129175 0 0 1 1.61292,-1.61291 1.6129175,1.6129175 0 0 1 1.61292,1.61291 z m -8.78144,-8.70974 a 1.6129175,1.6129175 0 0 1 -1.61291,1.61292 1.6129175,1.6129175 0 0 1 -1.61292,-1.61292 1.6129175,1.6129175 0 0 1 1.61292,-1.612912 1.6129175,1.6129175 0 0 1 1.61291,1.612912 z m -9.42663,-9.785037 a 1.6129175,1.6129175 0 0 1 -1.61292,1.612918 1.6129175,1.6129175 0 0 1 -1.61292,-1.612918 1.6129175,1.6129175 0 0 1 1.61292,-1.612917 1.6129175,1.6129175 0 0 1 1.61292,1.612917 z m -5.69898,13.440967 a 1.6129175,1.6129175 0 0 1 -1.61291,1.61292 1.6129175,1.6129175 0 0 1 -1.61292,-1.61292 1.6129175,1.6129175 0 0 1 1.61292,-1.61291 1.6129175,1.6129175 0 0 1 1.61291,1.61291 z m 9.06821,8.88897 a 1.6129175,1.6129175 0 0 1 -1.61292,1.61291 1.6129175,1.6129175 0 0 1 -1.61292,-1.61291 1.6129175,1.6129175 0 0 1 1.61292,-1.61292 1.6129175,1.6129175 0 0 1 1.61292,1.61292 z m 4.12189,4.30113 a 1.6129175,1.6129175 0 0 1 -1.61292,1.61292 1.6129175,1.6129175 0 0 1 -1.61292,-1.61292 1.6129175,1.6129175 0 0 1 1.61292,-1.61292 1.6129175,1.6129175 0 0 1 1.61292,1.61292 z m -8.78147,-8.70975 a 1.6129175,1.6129175 0 0 1 -1.61291,1.61292 1.6129175,1.6129175 0 0 1 -1.61292,-1.61292 1.6129175,1.6129175 0 0 1 1.61292,-1.61292 1.6129175,1.6129175 0 0 1 1.61291,1.61292 z m -9.42657,-9.785048 a 1.6129175,1.6129175 0 0 1 -1.61292,1.612918 1.6129175,1.6129175 0 0 1 -1.61292,-1.612918 1.6129175,1.6129175 0 0 1 1.61292,-1.612918 1.6129175,1.6129175 0 0 1 1.61292,1.612918 z m -1.1069,27.218878 c 0,0 -13.08815,-10.14195 -14.69547,-14.69549 m 28.41701,7.99985 c 0,0 -16.28041,-13.11034 -18.27973,-18.9966 m 8.96066,-9.319078 c 0,0 20.43031,17.562878 22.93928,25.448258 M 176.1446,82.038616 c 0,0 20.43032,17.562881 22.93929,25.448254"
       inkscape:connector-curvature="0" />
    <path
       id="path4419"
       style="fill:none;stroke:#000000;stroke-width:1;stroke-linecap:butt;stroke-linejoin:miter;stroke-opacity:1;stroke-miterlimit:4;stroke-dasharray:none"
       d="M 160.43706,31.708874 150.23171,31.14191 m -0.79011,-3.988068 c 0,0 -3.22584,6.989309 1.70253,7.795767 m -37.14188,-3.627497 1.77411,-2.281013 m 17.23428,22.556656 2.28104,-2.534455 m -59.052827,36.24271 2.28101,-2.027565 m -4.56202,14.192957 3.04135,-3.041349 m 48.661557,-79.075014 2.281,-2.787901 m -14.4464,13.686059 3.54822,-3.29479 m -2.53443,-4.56202 6.08269,-4.815466 m -12.92572,11.151608 3.29479,-2.787902 m 13.17917,28.892789 3.04133,-4.055129 m -0.5069,9.377485 3.54826,-4.562017 m 3.80167,4.815466 4.05514,-4.815466 m 3.54822,6.33614 3.8017,-4.562025 m -12.41885,10.39127 3.29481,-4.055128 m -11.40505,6.33614 3.80167,-4.815466 m -12.92571,7.603368 4.30857,-4.815467 m -14.19295,10.898159 3.8017,-3.294792 m -21.542887,11.405049 3.04135,-2.7879 m -33.70828,6.082693 3.54826,-3.54824 m 17.48774,9.124044 4.05514,-4.308577 m -12.67229,4.562019 3.29479,-3.801682 m -11.40503,3.041349 4.56201,-4.308577 m 20.120813,12.799011 a 0.98567188,0.98567188 0 0 1 -0.985672,0.985667 0.98567188,0.98567188 0 0 1 -0.985672,-0.985667 0.98567188,0.98567188 0 0 1 0.985672,-0.985672 0.98567188,0.98567188 0 0 1 0.985672,0.985672 z m 4.9422,-7.096482 a 0.98567188,0.98567188 0 0 1 -0.985672,0.985672 0.98567188,0.98567188 0 0 1 -0.985672,-0.985672 0.98567188,0.98567188 0 0 1 0.985672,-0.985671 0.98567188,0.98567188 0 0 1 0.985672,0.985671 z m 6.46286,-6.462867 a 0.98567188,0.98567188 0 0 1 -0.985672,0.985672 0.98567188,0.98567188 0 0 1 -0.985672,-0.985672 0.98567188,0.98567188 0 0 1 0.985672,-0.985672 0.98567188,0.98567188 0 0 1 0.985672,0.985672 z m 7.223184,-5.195633 a 0.98567188,0.98567188 0 0 1 -0.98567,0.985672 0.98567188,0.98567188 0 0 1 -0.98568,-0.985672 0.98567188,0.98567188 0 0 1 0.98568,-0.985672 0.98567188,0.98567188 0 0 1 0.98567,0.985672 z m 8.49044,-3.674958 a 0.98567188,0.98567188 0 0 1 -0.98567,0.985672 0.98567188,0.98567188 0 0 1 -0.98567,-0.985672 0.98567188,0.98567188 0 0 1 0.98567,-0.985671 0.98567188,0.98567188 0 0 1 0.98567,0.985671 z m 8.87059,-3.801681 a 0.98567188,0.98567188 0 0 1 -0.98567,0.985672 0.98567188,0.98567188 0 0 1 -0.98567,-0.985672 0.98567188,0.98567188 0 0 1 0.98567,-0.985672 0.98567188,0.98567188 0 0 1 0.98567,0.985672 z m 9.63092,-1.774117 a 0.98567188,0.98567188 0 0 1 -0.98567,0.985672 0.98567188,0.98567188 0 0 1 -0.98567,-0.985672 0.98567188,0.98567188 0 0 1 0.98567,-0.985671 0.98567188,0.98567188 0 0 1 0.98567,0.985671 z M 99.799583,104.66349 c 0,0 12.903337,-17.562878 32.616777,-18.638153 M 92.631063,104.30507 c 0,0 15.412317,-24.372981 45.161687,-25.089831 m -86.02226,6.881778 c 0,0 -20.07188,13.261772 -21.86401,12.903344 m 19.71344,-16.20086 c 0,0 -25.08983,12.903339 -27.95724,11.111208 M 48.90307,78.498388 c 0,0 -25.08984,11.469634 -31.89993,6.810097 M 118.17529,48.92823 a 2.2465315,2.2465315 0 0 1 -2.24653,2.246532 2.2465315,2.2465315 0 0 1 -2.24653,-2.246532 2.2465315,2.2465315 0 0 1 2.24653,-2.246531 2.2465315,2.2465315 0 0 1 2.24653,2.246531 z m -4.83875,-6.272461 a 2.2465315,2.2465315 0 0 1 -2.24653,2.246532 2.2465315,2.2465315 0 0 1 -2.24653,-2.246532 2.2465315,2.2465315 0 0 1 2.24653,-2.246531 2.2465315,2.2465315 0 0 1 2.24653,2.246531 z m -5.91403,-5.376384 a 2.2465315,2.2465315 0 0 1 -2.24653,2.246531 2.2465315,2.2465315 0 0 1 -2.24653,-2.246531 2.2465315,2.2465315 0 0 1 2.24653,-2.246532 2.2465315,2.2465315 0 0 1 2.24653,2.246532 z M 61.447973,64.878192 c 0,0 -2.68819,8.06459 3.94269,4.659538 0,0 -2.32976,7.706166 3.58429,3.942691 0,0 -1.25451,6.272458 5.37639,4.659541 M 72.559183,54.30462 c 0,0 -4.3011,8.06459 4.48034,5.914034 0,0 -3.58425,7.52695 3.58426,4.65954 0,0 -1.61292,7.526949 4.65954,4.301113 0,0 -1.07527,7.347736 4.83875,4.65954 m -8.88504,-29.686758 c 0,0 -1.37882,10.570953 6.43451,6.664298 0,0 -2.75764,7.813315 4.36623,4.825871 0,0 -2.98743,8.502726 4.36628,3.906659 0,0 -4.13644,7.813315 3.44705,4.136462 0,0 -3.21724,5.285476 2.987457,4.825871 M 91.192143,33.603122 c 0,0 -1.52067,11.658491 7.09648,7.349921 0,0 -3.04134,8.617149 4.815447,5.322357 0,0 -3.294787,9.377485 4.81548,4.308574 0,0 -4.56201,8.617149 3.80168,4.56202 0,0 -3.54823,5.829248 3.29481,5.322357 M 59.520064,72.331108 a 1.3478843,1.3478843 0 0 1 -1.347884,1.347884 1.3478843,1.3478843 0 0 1 -1.347884,-1.347884 1.3478843,1.3478843 0 0 1 1.347884,-1.347884 1.3478843,1.3478843 0 0 1 1.347884,1.347884 z m 3.684235,3.744125 a 1.3478843,1.3478843 0 0 1 -1.347884,1.347885 1.3478843,1.3478843 0 0 1 -1.347885,-1.347885 1.3478843,1.3478843 0 0 1 1.347885,-1.347884 1.3478843,1.3478843 0 0 1 1.347884,1.347884 z m 10.63367,-9.796608 a 1.6129175,1.6129175 0 0 1 -1.612917,1.612918 1.6129175,1.6129175 0 0 1 -1.612918,-1.612918 1.6129175,1.6129175 0 0 1 1.612918,-1.612917 1.6129175,1.6129175 0 0 1 1.612917,1.612917 z m 9.438187,9.639115 a 1.6129175,1.6129175 0 0 1 -1.612917,1.612917 1.6129175,1.6129175 0 0 1 -1.612918,-1.612917 1.6129175,1.6129175 0 0 1 1.612918,-1.612918 1.6129175,1.6129175 0 0 1 1.612917,1.612918 z m -4.659523,-4.408653 a 1.6129175,1.6129175 0 0 1 -1.612917,1.612917 1.6129175,1.6129175 0 0 1 -1.612918,-1.612917 1.6129175,1.6129175 0 0 1 1.612918,-1.612918 1.6129175,1.6129175 0 0 1 1.612917,1.612918 z M 69.19002,61.72406 a 1.6129175,1.6129175 0 0 1 -1.612917,1.612918 1.6129175,1.6129175 0 0 1 -1.612918,-1.612918 1.6129175,1.6129175 0 0 1 1.612918,-1.612917 1.6129175,1.6129175 0 0 1 1.612917,1.612917 z M 101.6403,32.416344 a 2.2465315,2.2465315 0 0 1 -2.246532,2.246531 2.2465315,2.2465315 0 0 1 -2.246531,-2.246531 2.2465315,2.2465315 0 0 1 2.246531,-2.246532 2.2465315,2.2465315 0 0 1 2.246532,2.246532 z m -5.926766,15.436611 a 1.6129175,1.6129175 0 0 1 -1.612918,1.612917 1.6129175,1.6129175 0 0 1 -1.612917,-1.612917 1.6129175,1.6129175 0 0 1 1.612917,-1.612918 1.6129175,1.6129175 0 0 1 1.612918,1.612918 z m 9.068206,8.888988 a 1.6129175,1.6129175 0 0 1 -1.61292,1.612918 1.6129175,1.6129175 0 0 1 -1.61291,-1.612918 1.6129175,1.6129175 0 0 1 1.61291,-1.612917 1.6129175,1.6129175 0 0 1 1.61292,1.612917 z m 4.12189,4.301091 a 1.6129175,1.6129175 0 0 1 -1.61292,1.612917 1.6129175,1.6129175 0 0 1 -1.61292,-1.612917 1.6129175,1.6129175 0 0 1 1.61292,-1.612918 1.6129175,1.6129175 0 0 1 1.61292,1.612918 z m -8.78144,-8.709744 a 1.6129175,1.6129175 0 0 1 -1.612913,1.612918 1.6129175,1.6129175 0 0 1 -1.612917,-1.612918 1.6129175,1.6129175 0 0 1 1.612917,-1.612917 1.6129175,1.6129175 0 0 1 1.612913,1.612917 z m -9.426631,-9.785046 a 1.6129175,1.6129175 0 0 1 -1.612917,1.612918 1.6129175,1.6129175 0 0 1 -1.612918,-1.612918 1.6129175,1.6129175 0 0 1 1.612918,-1.612917 1.6129175,1.6129175 0 0 1 1.612917,1.612917 z m -5.698974,13.440983 a 1.6129175,1.6129175 0 0 1 -1.612918,1.612918 1.6129175,1.6129175 0 0 1 -1.612918,-1.612918 1.6129175,1.6129175 0 0 1 1.612918,-1.612917 1.6129175,1.6129175 0 0 1 1.612918,1.612917 z m 9.068191,8.88897 a 1.6129175,1.6129175 0 0 1 -1.612917,1.612917 1.6129175,1.6129175 0 0 1 -1.612918,-1.612917 1.6129175,1.6129175 0 0 1 1.612918,-1.612918 1.6129175,1.6129175 0 0 1 1.612917,1.612918 z m 4.121887,4.301117 a 1.6129175,1.6129175 0 0 1 -1.612917,1.612917 1.6129175,1.6129175 0 0 1 -1.612918,-1.612917 1.6129175,1.6129175 0 0 1 1.612918,-1.612918 1.6129175,1.6129175 0 0 1 1.612917,1.612918 z m -8.781448,-8.709759 a 1.6129175,1.6129175 0 0 1 -1.612918,1.612917 1.6129175,1.6129175 0 0 1 -1.612917,-1.612917 1.6129175,1.6129175 0 0 1 1.612917,-1.612918 1.6129175,1.6129175 0 0 1 1.612918,1.612918 z M 79.97861,50.684513 a 1.6129175,1.6129175 0 0 1 -1.612918,1.612918 1.6129175,1.6129175 0 0 1 -1.612917,-1.612918 1.6129175,1.6129175 0 0 1 1.612917,-1.612917 1.6129175,1.6129175 0 0 1 1.612918,1.612917 z m -1.106867,27.218876 c 0,0 -13.08815,-10.141953 -14.69547,-14.695474 m 28.41701,7.999833 c 0,0 -16.28041,-13.110328 -18.27973,-18.996587 m 8.96066,-9.319079 c 0,0 20.430307,17.562879 22.939277,25.448253 M 93.347893,34.053546 c 0,0 20.430307,17.562879 22.939277,25.448252 m 28.16909,-25.450726 c 0,0 0.019,6.917684 -5.46179,2.689271 m 6.57022,-7.793474 c 0,0 3.82291,5.765426 -3.08032,5.25118 m 1.06517,-10.903332 c 0,0 6.75754,1.479914 1.44229,5.914646 m -6.80571,-8.935727 c 0,0 5.86207,-3.672976 5.17,3.214696 m -11.31919,-1.873111 c 0,0 1.50438,-6.752151 5.91984,-1.42086 m -9.41963,5.851046 c 0,0 -2.79374,-6.328484 3.92334,-4.655192 m -3.23661,10.744025 c 0,0 -6.35072,-2.7428 -0.28656,-6.081228 m 4.44705,10.466805 c 0,0 -6.56577,2.17835 -4.26039,-4.348845 m 10.47628,4.473494 c 0,0 -3.2948,6.082693 -6.08271,-0.253442 m 6.81878,33.321737 a 0.98567188,0.98567188 0 0 1 -0.98567,0.985672 0.98567188,0.98567188 0 0 1 -0.98567,-0.985672 0.98567188,0.98567188 0 0 1 0.98567,-0.985672 0.98567188,0.98567188 0 0 1 0.98567,0.985672 z m 1.04068,3.76766 c 0,0 -46.759637,4.509774 -52.033277,30.527719 m -5.71031,-1.35103 c 0,0 -6.60325,-11.732728 4.51914,-5.143141 0,0 -4.86854,-13.957517 5.30728,-6.607595 0,0 -2.14364,-15.608644 7.085567,-5.724268 0,0 -1.392227,-15.107029 8.59055,-4.858949 0,0 -1.24069,-13.865273 7.75189,-3.220561 0,0 1.66344,-15.040256 9.9461,-3.128314 0,0 3.74963,-13.519584 8.46181,-2.022289 0,0 3.03972,-13.957518 8.09651,-4.623518 m -6.67479,-56.214204 c 0,0 -51.671517,30.059034 14.12875,36.714297" />
    <circle
       style="opacity:1;vector-effect:none;fill:none;fill-opacity:1;stroke:#000000;stroke-width:1;stroke-linecap:square;stroke-linejoin:round;stroke-miterlimit:4;stroke-dasharray:none;stroke-dashoffset:0;stroke-opacity:1;paint-order:normal"
       id="path3308-0-5"
       cx="45.970352"
       cy="20.10877"
       r="8.1102581" />
    <path
       style="opacity:1;vector-effect:none;fill:#000000;fill-opacity:1;stroke:#000000;stroke-width:1;stroke-linecap:square;stroke-linejoin:round;stroke-miterlimit:4;stroke-dasharray:none;stroke-dashoffset:0;stroke-opacity:1;paint-order:normal"
       d="m 48.608072,18.318291 a 1.3229166,1.795387 0 0 1 0.19689,0.939995 1.3229166,1.795387 0 0 1 -1.32292,1.795239 1.3229166,1.795387 0 0 1 -1.32291,-1.795239 1.3229166,1.795387 0 0 1 0.19534,-0.934311 2.5344555,2.2810099 0 0 0 -1.39785,2.038119 2.5344555,2.2810099 0 0 0 2.53421,2.280997 2.5344555,2.2810099 0 0 0 2.53473,-2.280997 2.5344555,2.2810099 0 0 0 -1.41749,-2.043803 z"
       id="path3310-8-3"
       inkscape:connector-curvature="0" />
  </g>
</svg>
